<?xml version="1.0" encoding="UTF-8" standalone="no"?>
<!-- Created with Inkscape (http://www.inkscape.org/) -->

<svg
   xmlns:dc="http://purl.org/dc/elements/1.1/"
   xmlns:cc="http://creativecommons.org/ns#"
   xmlns:rdf="http://www.w3.org/1999/02/22-rdf-syntax-ns#"
   xmlns:svg="http://www.w3.org/2000/svg"
   xmlns="http://www.w3.org/2000/svg"
   xmlns:sodipodi="http://sodipodi.sourceforge.net/DTD/sodipodi-0.dtd"
   xmlns:inkscape="http://www.inkscape.org/namespaces/inkscape"
   width="162.7276mm"
   height="282.22223mm"
   viewBox="0 0 576.59386 1000"
   id="svg8991"
   version="1.1"
   inkscape:version="0.91 r"
   sodipodi:docname="fire.svg">
  <defs
     id="defs8993" />
  <sodipodi:namedview
     id="base"
     pagecolor="#ffffff"
     bordercolor="#666666"
     borderopacity="1.0"
     inkscape:pageopacity="0.0"
     inkscape:pageshadow="2"
     inkscape:zoom="0.35"
     inkscape:cx="-219.34963"
     inkscape:cy="599.55202"
     inkscape:document-units="px"
     inkscape:current-layer="layer1"
     showgrid="false"
     fit-margin-top="0"
     fit-margin-left="0"
     fit-margin-right="0"
     fit-margin-bottom="0" />
  <metadata
     id="metadata8996">
    <rdf:RDF>
      <cc:Work
         rdf:about="">
        <dc:format>image/svg+xml</dc:format>
        <dc:type
           rdf:resource="http://purl.org/dc/dcmitype/StillImage" />
        <dc:title></dc:title>
      </cc:Work>
    </rdf:RDF>
  </metadata>
  <g
     inkscape:label="Layer 1"
     inkscape:groupmode="layer"
     id="layer1"
     transform="translate(141.36466,-131.91423)">
    <path
       style="fill:#f0f0f0;fill-opacity:1;stroke:#505050;stroke-width:12.37029552;stroke-miterlimit:4;stroke-dasharray:none;stroke-opacity:1"
       d="m 73.793422,138.09893 c -0.816156,-0.0261 -1.43921,0.62455 -1.820852,2.12641 31.50406,77.51339 10.890101,160.29687 -23.454302,235.28167 -11.073229,24.18609 -24.139681,47.92497 -37.830034,71.53476 -35.919606,-51.05947 -60.078258,-107.92898 -55.439813,-169.59215 -6.645423,-10.71871 -11.349714,34.79111 -16.476653,44.48928 -46.082278,161.74742 -93.693998,328.51474 -65.460758,488.69622 15.86488,90.01122 64.490485,180.94101 157.737448,232.69678 31.399813,11.9695 31.399813,11.9695 31.399813,11.9695 -48.297289,-28.7457 -78.361224,-74.69797 -92.875165,-121.46119 -29.511421,-95.08587 -12.908554,-197.65856 3.119634,-297.12608 2.413329,-6.07407 1.83891,-33.68478 6.735782,-27.54225 2.39351,48.72359 34.372436,90.21527 72.374841,124.95031 21.310939,-29.20142 44.760417,-57.76004 63.028777,-87.88396 26.73174,-44.06617 45.72153,-93.47364 32.60951,-142.01208 0.34879,-0.89641 0.77913,-1.26214 1.27329,-1.20999 3.46014,0.36509 10.04403,21.30521 13.7135,25.84853 41.0665,81.11884 83.22791,164.47186 92.84968,251.50374 31.93928,-32.04646 57.048,-69.3938 59.15792,-112.34387 4.89687,-6.14252 4.33523,21.46819 6.74856,27.54161 16.02819,99.46752 32.60556,202.01543 3.09414,297.1013 -16.72321,53.88103 -54.02524,106.74703 -116.17672,133.36613 4.24409,-1.3834 8.43929,-2.8522 12.56759,-4.4058 121.03709,-45.5363 181.78117,-149.4454 199.88394,-252.15303 28.23317,-160.18148 -19.37848,-326.94945 -65.46076,-488.69623 -5.127,-9.69817 -9.83123,-55.20837 -16.47665,-44.48927 4.62365,61.46629 -19.37887,118.17476 -55.10876,169.10841 C 241.88544,391.65346 170.94472,283.90572 101.53882,178.57738 94.611042,171.61368 79.50658,138.2771 73.793422,138.09893 Z"
       id="path5917"
       inkscape:connector-curvature="0"
       sodipodi:nodetypes="ccccccsccsccccccccccscssccccc" />
  </g>
</svg>
